<?xml version="1.0" standalone="yes"?>
<svg
    version="1.1"
    xmlns="http://www.w3.org/2000/svg"
    x="0"
    y="0"
    viewBox="0 0 264.8 30.2"
    xml:space="preserve"
>
    <title>Protenus Logo</title>
    <path
        fill="#6447f2"
        class="st0"
        d="M10.5 18.3H3.6v11.4H0V.5h10.5c6.3 0 10.9 2.3 10.9 8.9s-4.6 8.9-10.9 8.9zm0-14.8H3.6v11.7h6.9c4 0 7.1-1.5 7.1-5.9.1-4.3-3.1-5.8-7.1-5.8zM44.3 17.3h-7.1v12.4h-3.6V.5H45c6.4 0 10.9 2.2 10.9 8.4 0 5.2-3.3 7.6-7.9 8.2l8 12.6h-4l-7.7-12.4zM45 3.4h-7.8v10.9h7.6c4.3 0 7.4-1.4 7.4-5.4S49.1 3.4 45 3.4zM93.1 15.1c0 8.3-3.5 15.1-12.9 15.1-9.3 0-12.8-6.8-12.8-15.1S70.9 0 80.2 0c9.4 0 12.9 6.8 12.9 15.1zm-3.7 0c0-6.6-2.3-11.9-9.1-11.9s-9.1 5.3-9.1 11.9c0 6.6 2.3 11.9 9.1 11.9s9.1-5.3 9.1-11.9zM114.5 3.6v26.1h-3.6V3.6h-9.2V.5h22v3.1h-9.2zM135.8 29.7V.5h18.5v3.1h-14.9v9.9h12.3v3.1h-12.3v9.9h15.2v3.1h-18.8zM172.6 5.8v23.9H169V.5h3.7l15.2 23.9V.5h3.6v29.2h-3.7L172.6 5.8zM229.2 19c0 6.3-2.5 11.2-10.9 11.2-8.5 0-11-4.9-11-11.2V.5h3.6v18.7c0 4.4 1.3 7.9 7.3 7.9s7.3-3.5 7.3-7.9V.5h3.6V19zM264.8 22.1c0 5.3-4.7 8-9.9 8-4.4 0-9.1-1.9-11.8-3.5l1.7-2.7c2.6 1.5 6.8 3.1 10.1 3.1 3.2 0 6.2-1.5 6.2-4.7 0-3.6-4-4.8-8.9-6.5-4-1.3-8.4-3-8.4-8.1 0-4.9 4.1-7.8 9.4-7.8 3.6 0 7.8 1.3 10.5 2.8L262 5.4c-2.5-1.3-6.2-2.3-8.7-2.3-3 0-5.8 1.3-5.8 4.5 0 3.5 3.7 4.2 8.1 5.7 4 1.3 9.2 3.3 9.2 8.8z"
    />
</svg>
